<mxfile host="app.diagrams.net" modified="2020-11-16T09:36:15.415Z" agent="5.0 (Windows NT 10.0; Win64; x64) AppleWebKit/537.36 (KHTML, like Gecko) Chrome/85.0.4183.102 Safari/537.36" etag="InTydbmHSNTwCccAz0qm" version="13.9.9" type="github">
  <diagram id="mW6RbuTZc-FTp5ea4Jcq" name="Page-1">
    <mxGraphModel dx="1422" dy="762" grid="1" gridSize="10" guides="1" tooltips="1" connect="1" arrows="1" fold="1" page="1" pageScale="1" pageWidth="827" pageHeight="1169" math="0" shadow="0">
      <root>
        <mxCell id="0" />
        <mxCell id="1" parent="0" />
        <mxCell id="cRAjIBoFx33PXlMRDBUu-7" style="edgeStyle=orthogonalEdgeStyle;rounded=0;orthogonalLoop=1;jettySize=auto;html=1;" edge="1" parent="1" source="cRAjIBoFx33PXlMRDBUu-1">
          <mxGeometry relative="1" as="geometry">
            <mxPoint x="420" y="400" as="targetPoint" />
          </mxGeometry>
        </mxCell>
        <mxCell id="cRAjIBoFx33PXlMRDBUu-8" style="edgeStyle=orthogonalEdgeStyle;rounded=0;orthogonalLoop=1;jettySize=auto;html=1;" edge="1" parent="1" source="cRAjIBoFx33PXlMRDBUu-1">
          <mxGeometry relative="1" as="geometry">
            <mxPoint x="560" y="280" as="targetPoint" />
            <Array as="points">
              <mxPoint x="420" y="240" />
              <mxPoint x="560" y="240" />
            </Array>
          </mxGeometry>
        </mxCell>
        <mxCell id="cRAjIBoFx33PXlMRDBUu-1" value="开始" style="strokeWidth=2;html=1;shape=mxgraph.flowchart.start_2;whiteSpace=wrap;" vertex="1" parent="1">
          <mxGeometry x="390" y="150" width="60" height="50" as="geometry" />
        </mxCell>
        <mxCell id="cRAjIBoFx33PXlMRDBUu-2" value="结束" style="strokeWidth=2;html=1;shape=mxgraph.flowchart.terminator;whiteSpace=wrap;" vertex="1" parent="1">
          <mxGeometry x="370" y="900" width="100" height="40" as="geometry" />
        </mxCell>
        <mxCell id="cRAjIBoFx33PXlMRDBUu-21" style="edgeStyle=orthogonalEdgeStyle;rounded=0;orthogonalLoop=1;jettySize=auto;html=1;" edge="1" parent="1" source="cRAjIBoFx33PXlMRDBUu-5">
          <mxGeometry relative="1" as="geometry">
            <mxPoint x="420" y="530" as="targetPoint" />
          </mxGeometry>
        </mxCell>
        <mxCell id="cRAjIBoFx33PXlMRDBUu-5" value="下载" style="rounded=1;whiteSpace=wrap;html=1;absoluteArcSize=1;arcSize=14;strokeWidth=2;" vertex="1" parent="1">
          <mxGeometry x="370" y="410" width="100" height="50" as="geometry" />
        </mxCell>
        <mxCell id="cRAjIBoFx33PXlMRDBUu-11" value="" style="edgeStyle=orthogonalEdgeStyle;rounded=0;orthogonalLoop=1;jettySize=auto;html=1;" edge="1" parent="1" source="cRAjIBoFx33PXlMRDBUu-6" target="cRAjIBoFx33PXlMRDBUu-10">
          <mxGeometry relative="1" as="geometry" />
        </mxCell>
        <mxCell id="cRAjIBoFx33PXlMRDBUu-6" value="批量下载" style="rounded=1;whiteSpace=wrap;html=1;absoluteArcSize=1;arcSize=14;strokeWidth=2;" vertex="1" parent="1">
          <mxGeometry x="510" y="280" width="100" height="50" as="geometry" />
        </mxCell>
        <mxCell id="cRAjIBoFx33PXlMRDBUu-20" style="edgeStyle=orthogonalEdgeStyle;rounded=0;orthogonalLoop=1;jettySize=auto;html=1;" edge="1" parent="1" source="cRAjIBoFx33PXlMRDBUu-10">
          <mxGeometry relative="1" as="geometry">
            <mxPoint x="660" y="435" as="targetPoint" />
          </mxGeometry>
        </mxCell>
        <mxCell id="cRAjIBoFx33PXlMRDBUu-26" style="edgeStyle=orthogonalEdgeStyle;rounded=0;orthogonalLoop=1;jettySize=auto;html=1;" edge="1" parent="1" source="cRAjIBoFx33PXlMRDBUu-10">
          <mxGeometry relative="1" as="geometry">
            <mxPoint x="560" y="530" as="targetPoint" />
          </mxGeometry>
        </mxCell>
        <mxCell id="cRAjIBoFx33PXlMRDBUu-10" value="全部都是图片？" style="rhombus;whiteSpace=wrap;html=1;rounded=1;strokeWidth=2;arcSize=14;" vertex="1" parent="1">
          <mxGeometry x="520" y="395" width="80" height="80" as="geometry" />
        </mxCell>
        <mxCell id="cRAjIBoFx33PXlMRDBUu-16" value="否" style="text;html=1;align=center;verticalAlign=middle;resizable=0;points=[];autosize=1;" vertex="1" parent="1">
          <mxGeometry x="625" y="407" width="30" height="20" as="geometry" />
        </mxCell>
        <mxCell id="cRAjIBoFx33PXlMRDBUu-19" value="提示“视频不允许下载”" style="strokeWidth=2;html=1;shape=mxgraph.flowchart.display;whiteSpace=wrap;" vertex="1" parent="1">
          <mxGeometry x="670" y="405" width="100" height="60" as="geometry" />
        </mxCell>
        <mxCell id="cRAjIBoFx33PXlMRDBUu-24" style="edgeStyle=orthogonalEdgeStyle;rounded=0;orthogonalLoop=1;jettySize=auto;html=1;" edge="1" parent="1" source="cRAjIBoFx33PXlMRDBUu-23">
          <mxGeometry relative="1" as="geometry">
            <mxPoint x="420" y="680" as="targetPoint" />
          </mxGeometry>
        </mxCell>
        <mxCell id="cRAjIBoFx33PXlMRDBUu-32" style="edgeStyle=orthogonalEdgeStyle;rounded=0;orthogonalLoop=1;jettySize=auto;html=1;" edge="1" parent="1" source="cRAjIBoFx33PXlMRDBUu-23">
          <mxGeometry relative="1" as="geometry">
            <mxPoint x="310" y="570" as="targetPoint" />
          </mxGeometry>
        </mxCell>
        <mxCell id="cRAjIBoFx33PXlMRDBUu-23" value="为图片，或者本地视频类型？" style="rhombus;whiteSpace=wrap;html=1;rounded=1;strokeWidth=2;arcSize=14;" vertex="1" parent="1">
          <mxGeometry x="380" y="530" width="80" height="80" as="geometry" />
        </mxCell>
        <mxCell id="cRAjIBoFx33PXlMRDBUu-25" value="是" style="text;html=1;align=center;verticalAlign=middle;resizable=0;points=[];autosize=1;" vertex="1" parent="1">
          <mxGeometry x="405" y="630" width="30" height="20" as="geometry" />
        </mxCell>
        <mxCell id="cRAjIBoFx33PXlMRDBUu-27" value="是" style="text;html=1;align=center;verticalAlign=middle;resizable=0;points=[];autosize=1;" vertex="1" parent="1">
          <mxGeometry x="555" y="480" width="30" height="20" as="geometry" />
        </mxCell>
        <mxCell id="cRAjIBoFx33PXlMRDBUu-29" style="edgeStyle=orthogonalEdgeStyle;rounded=0;orthogonalLoop=1;jettySize=auto;html=1;" edge="1" parent="1" source="cRAjIBoFx33PXlMRDBUu-28">
          <mxGeometry relative="1" as="geometry">
            <mxPoint x="560" y="670" as="targetPoint" />
          </mxGeometry>
        </mxCell>
        <mxCell id="cRAjIBoFx33PXlMRDBUu-28" value="下载所有图片" style="rounded=1;whiteSpace=wrap;html=1;absoluteArcSize=1;arcSize=14;strokeWidth=2;" vertex="1" parent="1">
          <mxGeometry x="510" y="545" width="100" height="50" as="geometry" />
        </mxCell>
        <mxCell id="cRAjIBoFx33PXlMRDBUu-40" style="edgeStyle=orthogonalEdgeStyle;rounded=0;orthogonalLoop=1;jettySize=auto;html=1;" edge="1" parent="1" source="cRAjIBoFx33PXlMRDBUu-30">
          <mxGeometry relative="1" as="geometry">
            <mxPoint x="420" y="900" as="targetPoint" />
            <Array as="points">
              <mxPoint x="560" y="820" />
              <mxPoint x="420" y="820" />
            </Array>
          </mxGeometry>
        </mxCell>
        <mxCell id="cRAjIBoFx33PXlMRDBUu-30" value="返回zip压缩文件" style="strokeWidth=2;html=1;shape=mxgraph.flowchart.document2;whiteSpace=wrap;size=0.25;" vertex="1" parent="1">
          <mxGeometry x="510" y="680" width="100" height="60" as="geometry" />
        </mxCell>
        <mxCell id="cRAjIBoFx33PXlMRDBUu-42" style="edgeStyle=orthogonalEdgeStyle;rounded=0;orthogonalLoop=1;jettySize=auto;html=1;entryX=0.5;entryY=0;entryDx=0;entryDy=0;" edge="1" parent="1" source="cRAjIBoFx33PXlMRDBUu-35" target="cRAjIBoFx33PXlMRDBUu-41">
          <mxGeometry relative="1" as="geometry" />
        </mxCell>
        <mxCell id="cRAjIBoFx33PXlMRDBUu-35" value="获取在线视频类型" style="rounded=1;whiteSpace=wrap;html=1;absoluteArcSize=1;arcSize=14;strokeWidth=2;" vertex="1" parent="1">
          <mxGeometry x="210" y="545" width="100" height="50" as="geometry" />
        </mxCell>
        <mxCell id="cRAjIBoFx33PXlMRDBUu-37" style="edgeStyle=orthogonalEdgeStyle;rounded=0;orthogonalLoop=1;jettySize=auto;html=1;" edge="1" parent="1" source="cRAjIBoFx33PXlMRDBUu-36">
          <mxGeometry relative="1" as="geometry">
            <mxPoint x="200" y="570" as="targetPoint" />
          </mxGeometry>
        </mxCell>
        <mxCell id="cRAjIBoFx33PXlMRDBUu-36" value="根据在线视频链接，判断&lt;br&gt;平台类型，当前支持：&lt;br&gt;1. Instagram&lt;br&gt;2. Youtube&lt;br&gt;3. Tiktok(仅线上环境可以使用&lt;br&gt;，本地和dev环境为香港节点，被封禁)" style="strokeWidth=2;html=1;shape=mxgraph.flowchart.annotation_1;align=left;pointerEvents=1;" vertex="1" parent="1">
          <mxGeometry x="30" y="410" width="50" height="100" as="geometry" />
        </mxCell>
        <mxCell id="cRAjIBoFx33PXlMRDBUu-39" style="edgeStyle=orthogonalEdgeStyle;rounded=0;orthogonalLoop=1;jettySize=auto;html=1;entryX=0.5;entryY=0;entryDx=0;entryDy=0;entryPerimeter=0;" edge="1" parent="1" source="cRAjIBoFx33PXlMRDBUu-38" target="cRAjIBoFx33PXlMRDBUu-2">
          <mxGeometry relative="1" as="geometry" />
        </mxCell>
        <mxCell id="cRAjIBoFx33PXlMRDBUu-38" value="返回图片" style="strokeWidth=2;html=1;shape=mxgraph.flowchart.document2;whiteSpace=wrap;size=0.25;" vertex="1" parent="1">
          <mxGeometry x="370" y="680" width="100" height="60" as="geometry" />
        </mxCell>
        <mxCell id="cRAjIBoFx33PXlMRDBUu-45" style="edgeStyle=orthogonalEdgeStyle;rounded=0;orthogonalLoop=1;jettySize=auto;html=1;entryX=0.5;entryY=0;entryDx=0;entryDy=0;entryPerimeter=0;" edge="1" parent="1" source="cRAjIBoFx33PXlMRDBUu-41" target="cRAjIBoFx33PXlMRDBUu-44">
          <mxGeometry relative="1" as="geometry" />
        </mxCell>
        <mxCell id="cRAjIBoFx33PXlMRDBUu-41" value="调用api，解析原链接" style="rounded=1;whiteSpace=wrap;html=1;absoluteArcSize=1;arcSize=14;strokeWidth=2;" vertex="1" parent="1">
          <mxGeometry x="210" y="680" width="100" height="50" as="geometry" />
        </mxCell>
        <mxCell id="cRAjIBoFx33PXlMRDBUu-47" style="edgeStyle=orthogonalEdgeStyle;rounded=0;orthogonalLoop=1;jettySize=auto;html=1;" edge="1" parent="1" source="cRAjIBoFx33PXlMRDBUu-44">
          <mxGeometry relative="1" as="geometry">
            <mxPoint x="420" y="900" as="targetPoint" />
          </mxGeometry>
        </mxCell>
        <mxCell id="cRAjIBoFx33PXlMRDBUu-44" value="返回视频" style="strokeWidth=2;html=1;shape=mxgraph.flowchart.document2;whiteSpace=wrap;size=0.25;" vertex="1" parent="1">
          <mxGeometry x="210" y="790" width="100" height="60" as="geometry" />
        </mxCell>
      </root>
    </mxGraphModel>
  </diagram>
</mxfile>
